::::::::::::::Enjoy:Another:Release:From:T0XiC::::::::::::::

File:: Neds.2010.READNFO.DVDSCR.XViD-T0XiC-iNK
Video Source:: ....BiGPOTaTO/Chapman
Audio Source:: ....BiGPOTaTO/Chapman
Language::English
IMDB::http://www.imdb.com/title/tt1560970/

Peter Mullan's third feature as a writer and director, after 
Orphans and The Magdalene Sisters, returns him to the 1970s Glasgow of his youth...

Specs::

General

Format                           : AVI
Format/Info                      : Audio Video Interleave
File size                        : 704 MiB
Duration                         : 1h 37mn
Overall bit rate                 : 1 005 Kbps
Writing application              : VirtualDubMod 1.5.10.2 (build 2540/release)
Writing library                  : VirtualDubMod build 2540/release

Video
ID                               : 0
Format                           : MPEG-4 Visual
Format profile                   : Advanced Simple@L5
Format settings, BVOP            : Yes
Format settings, QPel            : No
Format settings, GMC             : No warppoints
Format settings, Matrix          : Default (MPEG)
Codec ID                         : XVID
Codec ID/Hint                    : XviD
Duration                         : 1h 37mn
Bit rate                         : 867 Kbps
Width                            : 720 pixels
Height                           : 304 pixels
Display aspect ratio             : 2.35:1
Frame rate                       : 23.976 fps
Color space                      : YUV
Chroma subsampling               : 4:2:0
Bit depth                        : 8 bits
Scan type                        : Progressive
Bits/(Pixel*Frame)               : 0.165
Stream size                      : 608 MiB (86%)
Writing library                  : XviD 1.2.1 (UTC 2008-12-04)

Audio
ID                               : 1
Format                           : MPEG Audio
Format version                   : Version 1
Format profile                   : Layer 3
Mode                             : Joint stereo
Mode extension                   : MS Stereo
Codec ID                         : 55
Codec ID/Hint                    : MP3
Duration                         : 1h 37mn
Bit rate mode                    : Constant
Bit rate                         : 128 Kbps
Channel(s)                       : 2 channels
Sampling rate                    : 48.0 KHz
Stream size                      : 89.7 MiB (13%)
Alignment                        : Aligned on interleaves
Interleave, duration             : 42 ms (1.00 video frame)
Interleave, preload duration     : 504 ms

NOTES:: T0XiC-iNK is proud to present, Neds DVDSCR, Enjoy
Note: 23 Scenes were moved, this was a jigsaw puzzle. Two scenes were repeats, source was 100fps. I 
couldn't tell you if anything is missing from this movie. IMDB says 2hrs 4mins but again the source
was 100fps.. I watched as I put this together and it seems most if not all is there. 

::Why Complain? Whats Free Is Free::

::iNK is currently a free agent looking for work, if you would like iNK's touch, give me a email at:
...digital.ink@live.com

::We are always looking for friends with unreleased DVD's, Screeners, R5's, Audio, Cams, Silvers,
...and any other good sources you may have to offer - contact us: t0xicreleases@hushmail.com

::::::::::::::::::::::::::::::::::::   Respect To   :::::::::::::::::::::::::::::::::::::
::IMAGiNE,FLAWL3SS,Hive-CM8,DiGiTALiNK,Tranz,Vik,OneTwo,Joey,bob,Unevano & our friends on utn and PA::
                       "and to all of you who support us, Thank-You"

 
http://www.leetleech.org/images/08508080176387557562.png 
http://www.leetleech.org/images/15957346295493056318.png 
http://www.leetleech.org/images/49437835866983689366.png 
http://www.leetleech.org/images/57772453068111483119.png 
http://www.leetleech.org/images/67633971368114501404.png